<?xml version="1.0" encoding="iso-8859-1"?>
<!-- Generator: Adobe Illustrator 19.0.0, SVG Export Plug-In . SVG Version: 6.00 Build 0)  -->
<svg version="1.1" id="Capa_1" xmlns="http://www.w3.org/2000/svg" xmlns:xlink="http://www.w3.org/1999/xlink" x="0px" y="0px"
	width="97" height="85" viewBox="0 0 512 512" style="enable-background:new 0 0 512 512;" xml:space="preserve">
<g>
	<g>
		<path d="M240.559,160.131C250.15,149.493,256,135.418,256,120c0-33.084-26.916-60-60-60c-16.003,0-31.19,6.185-42.765,17.415
			C141.476,88.823,135,103.947,135,120c0,15.016,5.668,29.217,16.024,40.327C116.38,177.114,90,213.637,90,257v30
			c0,8.284,6.716,15,15,15h182c8.284,0,15-6.716,15-15v-30C302,213.878,275.788,177.008,240.559,160.131z M196,90
			c16.542,0,30,13.458,30,30s-13.458,30-30,30c-16.804,0-31-13.738-31-30C165,103.738,179.196,90,196,90z M272,272H120v-15
			c0-41.738,34.804-77,76-77s76,35.262,76,77V272z"/>
	</g>
</g>
<g>
	<g>
		<path d="M392,272V15c0-8.284-6.716-15-15-15H117.426c-12.02,0-23.32,4.681-31.819,13.18L13.18,85.607
			C4.681,94.106,0,105.406,0,117.426V467c0,8.284,6.716,15,15,15h297.721c21.158,18.66,48.917,30,79.279,30
			c66.168,0,120-53.832,120-120S458.168,272,392,272z M90,51.213V90H51.213L90,51.213z M30,452V120h75c8.284,0,15-6.716,15-15V30
			h242v245.797c-31.487,8.134-58.002,28.763-73.923,56.257C287.72,332.029,287.364,332,287,332H105c-8.284,0-15,6.716-15,15
			s6.716,14.9,15,14.9h170.797C273.319,371.492,272,381.645,272,392H105c-8.284,0-15,6.716-15,15s6.716,15,15,15h170.797
			c2.749,10.641,6.927,20.712,12.312,30H30z M392,482c-49.626,0-90-40.374-90-90c0-49.626,40.374-90,90-90c49.626,0,90,40.374,90,90
			C482,441.626,441.626,482,392,482z"/>
	</g>
</g>
<g>
	<g>
		<path d="M447.606,351.393c-5.857-5.858-15.355-5.858-21.212,0.001L377,400.787l-19.394-19.393c-5.857-5.858-15.355-5.858-21.213,0
			c-5.858,5.858-5.858,15.355,0,21.213l30,30C369.322,435.536,373.161,437,377,437s7.678-1.464,10.606-4.394l60-60
			C453.464,366.748,453.464,357.251,447.606,351.393z"/>
	</g>
</g>
<g>
</g>
<g>
</g>
<g>
</g>
<g>
</g>
<g>
</g>
<g>
</g>
<g>
</g>
<g>
</g>
<g>
</g>
<g>
</g>
<g>
</g>
<g>
</g>
<g>
</g>
<g>
</g>
<g>
</g>
</svg>
