
<svg width="307px" height="93px" viewBox="0 0 307 93" version="1.1" xmlns="http://www.w3.org/2000/svg" xmlns:xlink="http://www.w3.org/1999/xlink">
    <!-- Generator: Sketch 46.2 (44496) - http://www.bohemiancoding.com/sketch -->
    <desc>Created with Sketch.</desc>
    <defs></defs>
    <g id="Page-1" stroke="none" stroke-width="1" fill="#2980B9" fill-rule="evenodd">
        <path d="M39.2818303,89 L6,89 C2.6862915,89 4.05812251e-16,86.3137085 0,83 L0,16 L0,16 C-4.05812251e-16,12.6862915 2.6862915,10 6,10 L6,10 L16,10 L16,11 C16,14.8659932 19.1340068,18 23,18 L40,18 C43.8659932,18 47,14.8659932 47,11 L47,10 L57,10 C60.3137085,10 63,12.6862915 63,16 L63,56.1938794 C62.0181078,56.0659756 61.0167586,56 60,56 C58.6356613,56 57.2990682,56.1187934 56,56.3466011 L56,26 L7,26 L7,82 L37.1938794,82 C37.5168104,84.4790777 38.2345083,86.8341253 39.2818303,89 Z" id="board" fill="#2980B9"></path>
        <path d="M26,7 L22.5,7 L22.5,7 C20.0147186,7 18,9.01471863 18,11.5 C18,13.9852814 20.0147186,16 22.5,16 L40.5,16 C42.9852814,16 45,13.9852814 45,11.5 L45,11.5 C45,9.01471863 42.9852814,7 40.5,7 L40.5,7 L37,7 L37,5.5 C37,2.46243388 34.5375661,-5.57991845e-16 31.5,0 C28.4624339,5.57991845e-16 26,2.46243388 26,5.5 L26,5.5 L26,7 Z" id="clip" fill="#2980B9"></path>
        <path d="M26.6499023,59.409668 L37.7895508,59.409668 L32.309082,42.1342773 L26.6499023,59.409668 Z M47.3805442,59.7680351 L37.5810547,32.0966797 L27.2158203,32.0966797 L11.5488281,76 L21.1396484,76 L24.1777344,66.9750977 L40.3510742,66.9750977 L40.3642515,67.0171263 C42.1397582,64.1139004 44.5410551,61.635004 47.3805442,59.7680351 Z M82.8061206,76 L103.32959,76 L103.32959,68.1069336 L81.5864258,68.1069336 L81.5864258,32.0966797 L72.4125977,32.0966797 L72.4125977,59.6336069 C77.984559,63.2122788 81.9112008,69.1298774 82.8061206,76 Z M109.173828,32.0966797 L118.347656,32.0966797 L118.347656,68.1069336 L140.09082,68.1069336 L140.09082,76 L109.173828,76 L109.173828,32.0966797 Z M145.875488,76 L145.875488,32.0966797 L154.959961,32.0966797 L154.959961,48.8359375 L172.116211,48.8359375 L172.116211,32.0966797 L181.230469,32.0966797 L181.230469,76 L172.116211,76 L172.116211,56.4013672 L154.959961,56.4013672 L154.959961,76 L145.875488,76 Z M221.953125,39.8706055 L198.720703,39.8706055 L198.720703,49.1933594 L220.046875,49.1933594 L220.046875,56.8183594 L198.720703,56.8183594 L198.720703,68.1069336 L223.025391,68.1069336 L223.025391,76 L189.755371,76 L189.755371,32.0966797 L221.953125,32.0966797 L221.953125,39.8706055 Z M238.847656,39.7216797 L238.847656,51.5166016 L249.242676,51.5166016 C251.30779,51.5166016 252.856603,51.2783227 253.88916,50.8017578 C255.715992,49.9677693 256.629395,48.3196738 256.629395,45.8574219 C256.629395,43.1966013 255.745777,41.4095098 253.978516,40.4960938 C252.985672,39.9798151 251.496429,39.7216797 249.510742,39.7216797 L238.847656,39.7216797 Z M258.520752,33.2285156 C260.178801,33.9235061 261.583653,34.9461196 262.735352,36.2963867 C263.688481,37.4083714 264.443031,38.6394789 264.999023,39.9897461 C265.555016,41.3400133 265.833008,42.8788976 265.833008,44.6064453 C265.833008,46.6914167 265.306809,48.7416078 264.254395,50.7570801 C263.20198,52.7725524 261.46453,54.1972615 259.041992,55.03125 C261.067393,55.8453817 262.50203,57.002027 263.345947,58.5012207 C264.189864,60.0004144 264.611816,62.2888844 264.611816,65.3666992 L264.611816,68.3154297 C264.611816,70.3209736 264.691243,71.6811488 264.850098,72.3959961 C265.08838,73.5278377 265.644364,74.3618137 266.518066,74.8979492 L266.518066,76 L256.420898,76 C256.142902,75.0270134 255.944337,74.2426788 255.825195,73.6469727 C255.586913,72.4158467 255.457845,71.1549544 255.437988,69.8642578 L255.378418,65.7836914 C255.338704,62.9838727 254.827397,61.1173549 253.844482,60.184082 C252.861567,59.2508091 251.01987,58.7841797 248.319336,58.7841797 L238.847656,58.7841797 L238.847656,76 L229.882324,76 L229.882324,32.0966797 L251.416992,32.0966797 C254.494807,32.1562503 256.862703,32.5335252 258.520752,33.2285156 Z M305.691895,39.8706055 L282.459473,39.8706055 L282.459473,49.1933594 L303.785645,49.1933594 L303.785645,56.8183594 L282.459473,56.8183594 L282.459473,68.1069336 L306.76416,68.1069336 L306.76416,76 L273.494141,76 L273.494141,32.0966797 L305.691895,32.0966797 L305.691895,39.8706055 Z" id="ALLHERE-text" fill="#2980B9"></path>
        <path d="M57.7808243,85.6738477 C57.7862649,85.6788357 57.7917335,85.6838043 57.7972302,85.6887535 L57.7972302,85.6887535 C58.789813,86.5824791 60.318968,86.5023394 61.2126936,85.5097566 L61.2126936,85.5097566 L69.3017294,76.5259723 C70.1954549,75.5333895 70.1153153,74.0042344 69.1227325,73.1105088 L69.1227325,73.1105088 L69.1227325,73.1105088 C68.1301497,72.2167833 66.6009946,72.2969229 65.7072691,73.2895057 L59.0805702,80.6492003 L56.0257752,78.3472471 C54.9590761,77.5434318 53.4427246,77.7565411 52.6389092,78.8232401 C51.8350938,79.8899392 52.0482031,81.4062907 53.1149022,82.2101061 L53.1149022,82.2101061 L57.3964566,85.4364888 C57.5192145,85.5289935 57.6479275,85.6080301 57.7808243,85.6738477 Z M60,93 C52.2680135,93 46,86.7319865 46,79 C46,71.2680135 52.2680135,65 60,65 C67.7319865,65 74,71.2680135 74,79 C74,86.7319865 67.7319865,93 60,93 Z" id="checkmark" fill="#2980B9"></path>
    </g>
</svg>
