<?xml version="1.0" encoding="UTF-8"?>
<svg width="502px" height="152px" viewBox="0 0 502 152" version="1.1" xmlns="http://www.w3.org/2000/svg" xmlns:xlink="http://www.w3.org/1999/xlink">
    <!-- Generator: Sketch 46.2 (44496) - http://www.bohemiancoding.com/sketch -->
    <title>logo-white</title>
    <desc>Created with Sketch.</desc>
    <defs></defs>
    <g id="improved-logo" stroke="none" stroke-width="1" fill="none" fill-rule="evenodd">
        <g id="logo-white" fill="#FFFFFF">
            <path d="M43.5079365,11.4831461 L43.5079365,8.99206349 L43.5079365,8.99206349 C43.5079365,4.02588396 47.5338205,9.12272381e-16 52.5,0 C57.4661795,-9.12272381e-16 61.4920635,4.02588396 61.4920635,8.99206349 L61.4920635,11.4831461 L67.1894061,11.4831461 C71.2663845,11.4831461 74.5714286,14.7881901 74.5714286,18.8651685 L74.5714286,18.8651685 C74.5714286,22.942147 71.2663845,26.247191 67.1894061,26.247191 L37.8105939,26.247191 L37.8105939,26.247191 C33.7336155,26.247191 30.4285714,22.942147 30.4285714,18.8651685 C30.4285714,14.7881901 33.7336155,11.4831461 37.8105939,11.4831461 L37.8105939,11.4831461 L43.5079365,11.4831461 Z M92.5555556,100.829566 L92.5555556,42.6516854 L12.4444444,42.6516854 L12.4444444,134.516854 L71.5504034,134.516854 C72.3861407,138.747665 74.1420893,142.647783 76.6010433,146 L7,146 L7,146 C3.6862915,146 1,143.313708 1,140 L1,22.4044944 L1,22.4044944 C1,19.0907859 3.6862915,16.4044944 7,16.4044944 L7,16.4044944 L27.1587302,16.4044944 L27.1587302,22.5280899 C27.1587302,26.3940831 30.2927369,29.5280899 34.1587302,29.5280899 L70.8412698,29.5280899 C74.7072631,29.5280899 77.8412698,26.3940831 77.8412698,22.5280899 L77.8412698,22.5280899 L77.8412698,16.4044944 L98,16.4044944 C101.313708,16.4044944 104,19.0907859 104,22.4044944 L104,100.13878 C102.692476,99.9583903 101.357124,99.8651685 100,99.8651685 C97.4264605,99.8651685 94.9312176,100.200396 92.5555556,100.829566 Z" id="clipboard"></path>
            <path d="M43.7067752,96.7924016 L61.9322859,96.7924016 L52.9657245,68.4613297 L43.7067752,96.7924016 Z M80.7770728,106.304548 L61.5911667,52 L44.6326701,52 L19,124 L34.6914825,124 L39.6620763,109.199457 L66.1231788,109.199457 L70.5335461,123.299509 C71.8595354,116.477923 75.5765681,110.510413 80.7770728,106.304548 Z M127.593675,124 L169.161943,124 L169.161943,111.055631 L133.588085,111.055631 L133.588085,52 L118.578841,52 L118.578841,107.471731 C123.235667,111.735896 126.495804,117.500511 127.593675,124 Z M178.723666,52 L193.73291,52 L193.73291,111.055631 L229.306768,111.055631 L229.306768,124 L178.723666,124 L178.723666,52 Z M238.771028,124 L238.771028,52 L253.634078,52 L253.634078,79.4518318 L281.703313,79.4518318 L281.703313,52 L296.615095,52 L296.615095,124 L281.703313,124 L281.703313,91.8588874 L253.634078,91.8588874 L253.634078,124 L238.771028,124 Z M363.241184,64.7489824 L325.23076,64.7489824 L325.23076,80.0379919 L360.12238,80.0379919 L360.12238,92.5427408 L325.23076,92.5427408 L325.23076,111.055631 L364.995511,111.055631 L364.995511,124 L310.562636,124 L310.562636,52 L363.241184,52 L363.241184,64.7489824 Z M390.882223,64.504749 L390.882223,83.8480326 L407.889451,83.8480326 C411.268172,83.8480326 413.802175,83.4572631 415.491536,82.6757123 C418.480404,81.3079986 419.974816,78.6051762 419.974816,74.5671642 C419.974816,70.203506 418.529135,67.2727348 415.63773,65.7747626 C414.013344,64.9280826 411.576803,64.504749 408.328033,64.504749 L390.882223,64.504749 Z M423.069255,53.8561737 C425.781978,54.9959351 428.080449,56.6729876 429.964735,58.8873813 C431.524145,60.7109996 432.758659,62.7299754 433.668315,64.9443691 C434.577971,67.1587628 435.032792,69.6824824 435.032792,72.5156038 C435.032792,75.9348882 434.171881,79.2971341 432.450032,82.6024423 C430.728184,85.9077506 427.885553,88.2442265 423.922053,89.6119403 C427.235799,90.9470894 429.583,92.8439497 430.963727,95.302578 C432.344455,97.7612063 433.034808,101.514222 433.034808,106.561737 L433.034808,111.397558 C433.034808,114.686584 433.164757,116.917226 433.424659,118.089552 C433.814511,119.945735 434.724153,121.313428 436.153612,122.192673 L436.153612,124 L419.633697,124 C419.178869,122.404334 418.853997,121.118051 418.659071,120.141113 C418.269219,118.122107 418.058052,116.054285 418.025564,113.937585 L417.928101,107.24559 C417.863126,102.65398 417.02658,99.592952 415.418439,98.0624152 C413.810297,96.5318784 410.797108,95.7666214 406.37878,95.7666214 L390.882223,95.7666214 L390.882223,124 L376.214098,124 L376.214098,52 L411.446837,52 C416.482431,52.0976938 420.356531,52.7164122 423.069255,53.8561737 Z M500.245673,64.7489824 L462.235249,64.7489824 L462.235249,80.0379919 L497.126869,80.0379919 L497.126869,92.5427408 L462.235249,92.5427408 L462.235249,111.055631 L502,111.055631 L502,124 L447.567124,124 L447.567124,52 L500.245673,52 L500.245673,64.7489824 Z" id="ALLHERE-text"></path>
            <path d="M95.3542113,139.964178 C95.3631495,139.972373 95.3721337,139.980536 95.3811638,139.988666 L95.3811638,139.988666 C97.0118356,141.45693 99.5240189,141.325272 100.992282,139.6946 L114.281413,124.935526 C115.749676,123.304854 115.618018,120.792671 113.987346,119.324407 C112.356675,117.856144 109.844491,117.987802 108.376228,119.618474 L108.376228,119.618474 L97.4895082,131.709401 L92.4709163,127.92762 C90.7184822,126.607066 88.2273332,126.957175 86.9067794,128.709609 L86.9067794,128.709609 L86.9067794,128.709609 C85.5862255,130.462043 85.9363337,132.953192 87.6887678,134.273746 L87.6887678,134.273746 L94.7227502,139.574232 C94.9244238,139.726204 95.1358809,139.85605 95.3542113,139.964178 Z M99,152 C86.2974508,152 76,141.702549 76,129 C76,116.297451 86.2974508,106 99,106 C111.702549,106 122,116.297451 122,129 C122,141.702549 111.702549,152 99,152 Z" id="checkmark"></path>
        </g>
    </g>
</svg>