<?xml version="1.0" encoding="UTF-8"?>
<svg width="429px" height="140px" viewBox="0 0 429 140" version="1.1" xmlns="http://www.w3.org/2000/svg" xmlns:xlink="http://www.w3.org/1999/xlink">
    <!-- Generator: Sketch 46.2 (44496) - http://www.bohemiancoding.com/sketch -->
    <title>logo-black</title>
    <desc>Created with Sketch.</desc>
    <defs></defs>
    <g id="Page-1" stroke="none" stroke-width="1" fill="none" fill-rule="evenodd">
        <g id="logo-black" fill="#000000">
            <path d="M45.261,10.772 C43.618,10.772 42.285,9.44 42.285,7.796 C42.285,6.153 43.618,4.82 45.261,4.82 C46.904,4.82 48.237,6.153 48.237,7.796 C48.237,9.44 46.904,10.772 45.261,10.772 Z M58.215,10.772 C61.469,10.772 64.107,13.41 64.107,16.663 L64.107,16.783 C64.107,20.037 61.469,22.674 58.215,22.674 L32.307,22.674 C29.053,22.674 26.414,20.037 26.414,16.783 L26.414,16.663 C26.414,13.41 29.053,10.772 32.307,10.772 L35.361,10.772 C36.994,10.772 38.318,9.448 38.318,7.816 L38.318,7.717 C38.318,3.926 41.39,0.853 45.181,0.853 L45.34,0.853 C49.131,0.853 52.204,3.926 52.204,7.717 L52.204,7.817 C52.204,9.448 53.527,10.772 55.16,10.772 L58.215,10.772 Z M57.904,124.148 C58.036,124.537 58.174,124.924 58.32,125.307 C58.387,125.48 58.439,125.66 58.508,125.832 L8.56,125.832 C4.178,125.832 0.626,122.279 0.626,117.897 L0.626,22.674 C0.626,18.293 4.178,14.74 6.577,14.74 L22.654,14.74 C22.52,15.399 22.447,16.081 22.447,16.784 C22.447,22.219 26.87,26.643 32.307,26.643 L58.214,26.643 C63.652,26.643 68.074,22.219 68.074,16.663 C68.074,16.005 68.004,15.363 67.88,14.74 L79.977,14.74 C86.343,14.74 89.896,18.293 89.896,22.674 L89.896,81.47 C89.439,81.45 88.98,81.435 88.517,81.435 C85.56,81.435 82.699,81.839 79.977,82.583 L79.977,36.561 L10.545,36.561 L10.545,115.913 L56.268,115.913 C56.324,116.762 56.41,117.603 56.53,118.434 C56.534,118.464 56.537,118.496 56.542,118.527 C56.648,119.246 56.781,119.956 56.934,120.659 C56.992,120.927 57.054,121.192 57.118,121.457 C57.232,121.924 57.358,122.386 57.492,122.845 C57.62,123.284 57.758,123.717 57.904,124.148 Z" id="clipboard"></path>
            <path d="M115.614,95.817 L145.813,95.817 L145.813,106.69 L120.11,106.69 C117.948,97.031 111.556,88.977 102.977,84.566 L102.977,46.209 L115.614,46.209 L115.614,95.817 Z M153.19,46.209 L165.828,46.209 L165.828,95.817 L196.027,95.817 L196.027,106.69 L153.19,106.69 L153.19,46.209 Z M204.439,106.69 L204.439,46.209 L216.995,46.209 L216.995,69.269 L240.506,69.269 L240.506,46.209 L253.061,46.209 L253.061,106.69 L240.506,106.69 L240.506,79.691 L216.995,79.691 L216.995,106.69 L204.439,106.69 Z M309.931,56.919 L277.926,56.919 L277.926,69.761 L307.304,69.761 L307.304,80.266 L277.926,80.266 L277.926,95.817 L311.408,95.817 L311.408,106.69 L265.576,106.69 L265.576,46.209 L309.931,46.209 L309.931,56.919 Z M360.013,47.769 C362.241,48.727 364.127,50.135 365.675,51.995 C366.956,53.527 367.969,55.223 368.715,57.083 C369.463,58.944 369.836,61.063 369.836,63.443 C369.836,66.315 369.111,69.14 367.661,71.915 C366.212,74.693 363.819,76.655 360.481,77.803 C363.272,78.926 365.248,80.519 366.411,82.584 C367.573,84.65 368.154,87.802 368.154,92.042 L368.154,96.104 C368.154,98.867 368.265,100.74 368.487,101.725 C368.822,103.284 369.598,104.433 370.821,105.172 L370.821,106.69 L356.871,106.69 C356.487,105.35 356.214,104.269 356.051,103.449 C355.722,101.753 355.544,100.016 355.517,98.238 L355.435,92.616 C355.383,88.759 354.717,86.188 353.435,84.902 C352.155,83.617 349.754,82.973 346.235,82.973 L333.893,82.973 L333.893,106.69 L321.542,106.69 L321.542,46.209 L350.47,46.209 C354.605,46.291 357.786,46.811 360.013,47.769 Z M333.893,56.714 L333.893,72.962 L347.493,72.962 C350.195,72.962 352.222,72.634 353.573,71.977 C355.963,70.828 357.158,68.558 357.158,65.166 C357.158,61.501 356.001,59.039 353.689,57.781 C352.391,57.069 350.442,56.714 347.844,56.714 L333.893,56.714 Z M426.666,56.919 L394.661,56.919 L394.661,69.761 L424.039,69.761 L424.039,80.266 L394.661,80.266 L394.661,95.817 L428.143,95.817 L428.143,106.69 L382.311,106.69 L382.311,46.209 L426.666,46.209 L426.666,56.919 Z M59.686,98.997 L58.165,94.258 L35.892,94.258 L31.792,106.691 L18.573,106.691 L40.163,46.209 L54.463,46.209 L69.141,87.698 C68.57,88.134 67.999,88.57 67.458,89.041 C64.554,91.572 62.085,94.585 60.208,97.981 C60.024,98.313 59.859,98.658 59.686,98.997 Z M39.33,83.835 L54.819,83.835 L47.179,60.037 L39.33,83.835 Z" id="text"></path>
            <path d="M101.36,109.561 L87.285,125.396 C86.591,126.177 85.626,126.577 84.653,126.577 C83.881,126.577 83.104,126.324 82.456,125.805 L73.658,118.767 C72.141,117.554 71.895,115.34 73.11,113.823 C74.322,112.303 76.538,112.057 78.055,113.272 L84.244,118.222 L96.101,104.884 C97.39,103.432 99.615,103.3 101.069,104.592 C102.521,105.884 102.652,108.107 101.36,109.561 Z M88.828,88.998 C74.992,88.998 63.776,100.214 63.776,114.049 C63.776,127.885 74.992,139.101 88.828,139.101 C102.663,139.101 113.879,127.885 113.879,114.049 C113.879,100.214 102.663,88.998 88.828,88.998 L88.828,88.998 Z" id="checkmark"></path>
        </g>
    </g>
</svg>