<svg height="512pt" viewBox="-30 0 511 512" width="512pt" xmlns="http://www.w3.org/2000/svg"><path d="m362.402344 421.953125v-331.90625h-271.855469v331.90625zm-181.769532-301.855469h151.734376v30h-151.734376zm0 60.046875h151.734376v30h-151.734376zm0 60.046875h151.734376v30h-151.734376zm0 60.046875h151.734376v30h-151.734376zm0 60.050781h151.734376v30h-151.734376zm-60.046874-240.191406h30.019531v30h-30.019531zm0 60.046875h30.019531v30h-30.019531zm0 60.046875h30.019531v30h-30.019531zm0 60.046875h30.019531v30h-30.019531zm30.023437 60.050781v30h-30.023437v-30zm0 0"/><path d="m392.402344 0v451.953125h-331.855469v-451.953125h-60.046875v512h451.953125v-512zm0 0"/><path d="m90.546875 0h271.855469v60.046875h-271.855469zm0 0"/></svg>