<?xml version="1.0" encoding="iso-8859-1"?>
<!-- Generator: Adobe Illustrator 18.1.1, SVG Export Plug-In . SVG Version: 6.00 Build 0)  -->
<svg version="1.1" id="Capa_1" xmlns="http://www.w3.org/2000/svg" xmlns:xlink="http://www.w3.org/1999/xlink" x="0px" y="0px"
	 viewBox="0 0 29.358 29.358" style="enable-background:new 0 0 29.358 29.358;" xml:space="preserve">
<g>
	<path style="fill:#030104;" d="M21.895,0H7.463c-0.237,0-0.43,0.194-0.43,0.428v28.503c0,0.173,0.103,0.326,0.266,0.394
		c0.053,0.023,0.107,0.033,0.164,0.033c0.112,0,0.22-0.042,0.301-0.127l6.917-6.909l6.912,6.909
		c0.121,0.124,0.303,0.158,0.467,0.094c0.161-0.067,0.266-0.221,0.266-0.394V0.428C22.325,0.194,22.132,0,21.895,0z M18.201,8.958
		H15.55v2.71h-2.31v-2.71h-2.686V6.649h2.686v-2.63h2.311V6.65h2.651L18.201,8.958L18.201,8.958z"/>
</g>
<g>
</g>
<g>
</g>
<g>
</g>
<g>
</g>
<g>
</g>
<g>
</g>
<g>
</g>
<g>
</g>
<g>
</g>
<g>
</g>
<g>
</g>
<g>
</g>
<g>
</g>
<g>
</g>
<g>
</g>
</svg>
